<svg id="Layer_1" data-name="Layer 1" xmlns="http://www.w3.org/2000/svg" viewBox="0 0 277.14 357.16"><defs><style>.cls-1,.cls-2{opacity:0.5;}.cls-2{font-size:12px;font-family:AvenirNextCondensed-Medium, Avenir Next Condensed;}.cls-2,.cls-8{letter-spacing:0.01em;}.cls-3{letter-spacing:0em;}.cls-4{letter-spacing:0.01em;}.cls-5,.cls-9{font-size:32px;font-family:AvenirNextCondensed-DemiBold, Avenir Next Condensed;font-weight:700;letter-spacing:0em;}.cls-14,.cls-5{fill:none;stroke:#000;}.cls-5{stroke-width:0.25px;}.cls-6{letter-spacing:-0.03em;}.cls-7{letter-spacing:0em;}.cls-9{opacity:0.25;}.cls-10{stroke:#f2f2f2;stroke-width:0.5px;}.cls-11{fill:#666;}.cls-12{font-size:8px;fill:#e6e6e6;font-family:AvenirNextCondensed-Italic, Avenir Next Condensed;font-style:italic;letter-spacing:0em;}.cls-13{letter-spacing:0em;}.cls-14{stroke-miterlimit:10;stroke-width:4px;}</style></defs><title>ACT-SO</title><g class="cls-1"><path d="M59.25,54.58h4.3a1.74,1.74,0,0,1,1.83,1.6v1.2A1.73,1.73,0,0,1,63.55,59h-4.3c-1.69,0-3.07-1-3.07-2.21S57.56,54.58,59.25,54.58Z" transform="translate(40.53 -26.29)"/><path d="M54,62.19c0,1.21,1.38,2.2,3.07,2.2h3.27a1.73,1.73,0,0,0,1.82-1.6v-1.2A1.74,1.74,0,0,0,60.29,60H57C55.33,60,54,61,54,62.19Z" transform="translate(40.53 -26.29)"/><path d="M51.72,67.59c0,1.21,1.38,2.21,3.07,2.21H57a1.73,1.73,0,0,0,1.82-1.61V67A1.73,1.73,0,0,0,57,65.39H54.79C53.1,65.39,51.72,66.38,51.72,67.59Z" transform="translate(40.53 -26.29)"/><path d="M66.6,49.17H64.87l-1.61,4.41H66.6c1.68,0,3.06-1,3.06-2.21S68.28,49.17,66.6,49.17Z" transform="translate(40.53 -26.29)"/><path d="M45.52,60.47A11.38,11.38,0,0,0,45,57.21l8.45,3.09a2.91,2.91,0,0,0-.71,1.89,3,3,0,0,0,.94,2.14,3.81,3.81,0,0,0-3,2.45l-5.93-2.17h0A11.25,11.25,0,0,0,45.52,60.47ZM48.92,64a1.79,1.79,0,1,0-1.06-2.3A1.79,1.79,0,0,0,48.92,64ZM63.36,39.21l-9.43-3.46A3.71,3.71,0,0,0,49.2,38l-.89,2.43a5.53,5.53,0,0,1,1.41,2.74l1.46-4L63.26,43.6l-3.6,9.81h2.42L65.53,44A3.71,3.71,0,0,0,63.36,39.21Z" transform="translate(40.53 -26.29)"/><path d="M50.58,68l-7.43-2.72a10,10,0,0,0,1.2-4.8,10.12,10.12,0,0,0-.6-3.47c1.53-3.94,4.17-10.7,4.66-12,1-2.69-1.94-4.59-1.94-4.59l-7.8,13.3c-2,3.55-3,5.37-2.9,9.62a30.39,30.39,0,0,1-5.59,5l7.54,12a30.15,30.15,0,0,1,7.89-5.63c6.57-.91,8.92-3.71,8.92-3.71C52.45,70.86,50.81,69.62,50.58,68Z" transform="translate(40.53 -26.29)"/><path d="M70.67,39.82a4.7,4.7,0,0,0-8.75-2.38l1.84.67.29.13A2.47,2.47,0,0,1,66,37.32a2.49,2.49,0,0,1,.92,4.81,4.91,4.91,0,0,1-.27,2.26l0,.08A4.7,4.7,0,0,0,70.67,39.82Z" transform="translate(40.53 -26.29)"/><path d="M75.08,39.82a9.1,9.1,0,0,0-17.33-3.91l2.08.76A6.9,6.9,0,1,1,66,46.73h-.2L65.3,48h1.3a5.09,5.09,0,0,1,2.18.47A9.13,9.13,0,0,0,75.08,39.82Z" transform="translate(40.53 -26.29)"/><path d="M66,26.29a13.53,13.53,0,0,0-12.41,8.16,5.16,5.16,0,0,1,.77.21l1.34.49a11.31,11.31,0,1,1,14.88,15,2.76,2.76,0,0,1,.28,1.21,2.84,2.84,0,0,1-.25,1.16A13.53,13.53,0,0,0,66,26.29Z" transform="translate(40.53 -26.29)"/></g><text class="cls-2" transform="translate(115.2 43.55)">Di<tspan class="cls-3" x="9.66" y="0">r</tspan><tspan class="cls-4" x="13.13" y="0">ect your NA</tspan><tspan class="cls-3" x="63.72" y="0">A</tspan><tspan class="cls-4" x="69.61" y="0">CP donation via NFC </tspan></text><text x="40.53" y="-26.29"></text><text x="40.53" y="-26.29"></text><text class="cls-5" transform="translate(141.42 341.71)">AC<tspan class="cls-6" x="32.32" y="0">T</tspan><tspan class="cls-7" x="43.46" y="0">-</tspan><tspan class="cls-8" x="51.01" y="0">SO</tspan></text><text class="cls-9" transform="translate(142.46 342.51)">AC<tspan class="cls-6" x="32.32" y="0">T</tspan><tspan class="cls-7" x="43.46" y="0">-</tspan><tspan class="cls-8" x="51.01" y="0">SO</tspan></text><text x="40.53" y="-26.29"></text><text x="40.53" y="-26.29"></text><polygon class="cls-10" points="164.53 274.15 186.1 263.47 195.17 288.47 232.69 181.43 202.05 167.11 164.53 274.15"/><polygon class="cls-10" points="223.56 293.31 237.09 269.05 256.4 281.44 239.02 171.46 206.18 183.34 223.56 293.31"/><circle class="cls-11" cx="217.67" cy="154.98" r="36"/><text class="cls-12" transform="translate(196.52 159.54)">a<tspan class="cls-13" x="3.23" y="0">t</tspan><tspan class="cls-8" x="5.18" y="0">tach NFC tag</tspan></text><path class="cls-14" d="M234,148" transform="translate(40.53 -26.29)"/><path class="cls-14" d="M214,162" transform="translate(40.53 -26.29)"/><path class="cls-14" d="M241,213.5" transform="translate(40.53 -26.29)"/><path class="cls-14" d="M219.5,202.5" transform="translate(40.53 -26.29)"/><path class="cls-14" d="M241,179" transform="translate(40.53 -26.29)"/><path class="cls-14" d="M218.5,180.5" transform="translate(40.53 -26.29)"/><path class="cls-14" d="M223.5,194" transform="translate(40.53 -26.29)"/></svg>