<svg id="Layer_1" data-name="Layer 1" xmlns="http://www.w3.org/2000/svg" viewBox="0 0 262.74 358.14"><defs><style>.cls-1,.cls-6{font-size:32px;font-family:AvenirNextCondensed-DemiBold, Avenir Next Condensed;font-weight:700;letter-spacing:0.01em;}.cls-1{fill:none;stroke-width:0.25px;}.cls-1,.cls-11{stroke:#000;}.cls-2{letter-spacing:0em;}.cls-3,.cls-8{letter-spacing:0.01em;}.cls-4{letter-spacing:-0.01em;}.cls-5{letter-spacing:0.01em;}.cls-6{opacity:0.25;}.cls-7,.cls-8{opacity:0.5;}.cls-8{font-size:12px;font-family:AvenirNextCondensed-Medium, Avenir Next Condensed;}.cls-9{letter-spacing:0em;}.cls-10{letter-spacing:0.01em;}.cls-11{fill:#fff;stroke-miterlimit:10;stroke-width:3px;}.cls-12{fill:#666;}.cls-13{font-size:8px;fill:#e6e6e6;font-family:AvenirNextCondensed-Italic, Avenir Next Condensed;font-style:italic;letter-spacing:0em;}.cls-14{letter-spacing:0em;}.cls-15{font-size:18px;font-family:AvenirNextCondensed-Heavy, Avenir Next Condensed;}</style></defs><title>General Fund</title><text class="cls-1" transform="translate(52.15 342.48)">Gene<tspan class="cls-2" x="63.68" y="0">r</tspan><tspan class="cls-3" x="73.63" y="0">al </tspan><tspan class="cls-4" x="102.75" y="0">F</tspan><tspan class="cls-5" x="115.65" y="0">und</tspan></text><text class="cls-6" transform="translate(53.15 343.48)">Gene<tspan class="cls-2" x="63.68" y="0">r</tspan><tspan class="cls-3" x="73.63" y="0">al </tspan><tspan class="cls-4" x="102.75" y="0">F</tspan><tspan class="cls-5" x="115.65" y="0">und</tspan></text><g class="cls-7"><path d="M48.34,49.12h4.3a1.74,1.74,0,0,1,1.83,1.61v1.19a1.73,1.73,0,0,1-1.82,1.61h-4.3c-1.69,0-3.07-1-3.07-2.2S46.65,49.12,48.34,49.12Z" transform="translate(-8.61 -20.84)"/><path d="M43,56.73c0,1.22,1.38,2.21,3.07,2.21h3.27a1.73,1.73,0,0,0,1.82-1.61v-1.2a1.74,1.74,0,0,0-1.83-1.6H46.11C44.42,54.53,43,55.52,43,56.73Z" transform="translate(-8.61 -20.84)"/><path d="M40.81,62.14c0,1.21,1.38,2.2,3.07,2.2h2.24a1.73,1.73,0,0,0,1.82-1.6v-1.2a1.73,1.73,0,0,0-1.82-1.61H43.88C42.19,59.93,40.81,60.93,40.81,62.14Z" transform="translate(-8.61 -20.84)"/><path d="M55.69,43.72H54l-1.61,4.41h3.34c1.68,0,3.07-1,3.07-2.21S57.37,43.72,55.69,43.72Z" transform="translate(-8.61 -20.84)"/><path d="M34.61,55a11.44,11.44,0,0,0-.48-3.27l8.45,3.1a2.89,2.89,0,0,0-.71,1.88,3,3,0,0,0,.94,2.14,3.83,3.83,0,0,0-3.05,2.46l-5.93-2.17h0A11.29,11.29,0,0,0,34.61,55ZM38,58.58A1.79,1.79,0,1,0,37,56.29,1.79,1.79,0,0,0,38,58.58ZM52.45,33.75,43,30.3a3.71,3.71,0,0,0-4.74,2.25L37.4,35a5.45,5.45,0,0,1,1.41,2.74l1.46-4,12.08,4.42L48.75,48h2.42l3.45-9.42A3.71,3.71,0,0,0,52.45,33.75Z" transform="translate(-8.61 -20.84)"/><path d="M39.67,62.54l-7.43-2.72a10.25,10.25,0,0,0,.6-8.27c1.54-3.94,4.17-10.71,4.66-12,1-2.69-1.94-4.59-1.94-4.59l-7.8,13.3c-2,3.54-3,5.37-2.89,9.61a30.5,30.5,0,0,1-5.6,5l7.54,12A30,30,0,0,1,34.7,69.2c6.57-.9,8.92-3.7,8.92-3.7C41.54,65.4,39.9,64.17,39.67,62.54Z" transform="translate(-8.61 -20.84)"/><path d="M59.76,34.36A4.7,4.7,0,0,0,51,32l1.84.68.3.12a2.47,2.47,0,0,1,1.91-.91A2.49,2.49,0,0,1,56,36.68a4.76,4.76,0,0,1-.27,2.25l0,.09A4.71,4.71,0,0,0,59.76,34.36Z" transform="translate(-8.61 -20.84)"/><path d="M64.17,34.36a9.1,9.1,0,0,0-17.33-3.9l2.08.76a6.9,6.9,0,1,1,6.14,10.05h-.2l-.47,1.29h1.3a5.1,5.1,0,0,1,2.18.48A9.14,9.14,0,0,0,64.17,34.36Z" transform="translate(-8.61 -20.84)"/><path d="M55.06,20.84A13.54,13.54,0,0,0,42.65,29a4.56,4.56,0,0,1,.78.22l1.33.48a11.31,11.31,0,1,1,14.88,15,2.81,2.81,0,0,1,0,2.38,13.53,13.53,0,0,0-4.61-26.24Z" transform="translate(-8.61 -20.84)"/></g><text class="cls-8" transform="translate(53.95 44.76)">Di<tspan class="cls-9" x="9.66" y="0">r</tspan><tspan class="cls-10" x="13.13" y="0">ect your NA</tspan><tspan class="cls-9" x="63.72" y="0">A</tspan><tspan class="cls-10" x="69.61" y="0" xml:space="preserve">CP donation via NFC  </tspan></text><text x="-8.61" y="-20.84"></text><text x="-8.61" y="-20.84"></text><rect class="cls-11" x="29.02" y="175.73" width="220.61" height="108.48" transform="translate(8.94 -30.59) rotate(4.28)"/><rect class="cls-11" x="41.15" y="175.25" width="220.61" height="108.48" transform="translate(34.37 -44) rotate(10.19)"/><rect class="cls-11" x="35.12" y="176.57" width="220.61" height="108.48" transform="matrix(0.99, 0.14, -0.14, 0.99, 24.05, -38.43)"/><circle class="cls-12" cx="137.09" cy="210.22" r="36"/><text class="cls-13" transform="translate(115.57 211.88) rotate(7.8)">a<tspan class="cls-14" x="3.23" y="0">t</tspan><tspan class="cls-3" x="5.18" y="0">tach NFC tag</tspan></text><text class="cls-15" transform="translate(39.87 163.36) rotate(7.8)">$</text><text class="cls-15" transform="translate(221.92 267.9) rotate(7.8)">$</text><text class="cls-15" transform="translate(233.21 189.92) rotate(7.8)">$</text><text class="cls-15" transform="translate(29.25 240.91) rotate(7.8)">$</text></svg>