<svg id="Layer_1" data-name="Layer 1" xmlns="http://www.w3.org/2000/svg" viewBox="0 0 221.99 351.35"><defs><style>.cls-1,.cls-6{fill:none;stroke:#000;}.cls-1{stroke-miterlimit:10;stroke-width:2px;}.cls-2{fill:#666;}.cls-3{font-size:8px;fill:#e6e6e6;font-family:AvenirNextCondensed-Italic, Avenir Next Condensed;font-style:italic;letter-spacing:0em;}.cls-4{letter-spacing:0em;}.cls-12,.cls-5{letter-spacing:0.01em;}.cls-10,.cls-6{font-size:32px;font-family:AvenirNextCondensed-DemiBold, Avenir Next Condensed;font-weight:700;letter-spacing:0em;}.cls-6{stroke-width:0.25px;}.cls-7{letter-spacing:0em;}.cls-8{letter-spacing:0.01em;}.cls-9{letter-spacing:0em;}.cls-10{opacity:0.25;}.cls-11,.cls-12{opacity:0.5;}.cls-12{font-size:12px;font-family:AvenirNextCondensed-Medium, Avenir Next Condensed;}.cls-13{letter-spacing:0.01em;}</style></defs><title>Legal Redress</title><path class="cls-1" d="M163.15,113.67" transform="translate(-21.45 -21.44)"/><path class="cls-1" d="M189.21,61.55" transform="translate(-21.45 -21.44)"/><path class="cls-1" d="M180.73,136.7" transform="translate(-21.45 -21.44)"/><path class="cls-1" d="M231.64,107" transform="translate(-21.45 -21.44)"/><rect x="133.06" y="123.86" width="8.48" height="90"/><rect x="154.97" y="75.25" width="8.48" height="144" transform="translate(15.33 304.82) rotate(-98.39)"/><rect x="100.2" y="155" width="3.6" height="72" transform="translate(-64.36 8.67) rotate(-13.9)"/><path d="M112.44,224.89c0,7.2-8.06,13-18,13s-18-5.83-18-13c0-.1,0-.2,0-.3h36C112.44,224.69,112.44,224.79,112.44,224.89Z" transform="translate(-21.45 -21.44)"/><rect x="84.96" y="155.39" width="3.6" height="72" transform="translate(27.08 -36.68) rotate(13.9)"/><rect x="231.2" y="137" width="3.6" height="72" transform="translate(-56.2 39.62) rotate(-13.9)"/><path d="M243.44,206.89c0,7.2-8.06,13-18,13s-18-5.83-18-13c0-.1,0-.2,0-.3h36C243.44,206.69,243.44,206.79,243.44,206.89Z" transform="translate(-21.45 -21.44)"/><rect x="215.96" y="137.39" width="3.6" height="72" transform="translate(26.6 -68.69) rotate(13.9)"/><circle class="cls-2" cx="137.36" cy="243.31" r="36"/><text class="cls-3" transform="translate(116.22 247.88)">a<tspan class="cls-4" x="3.23" y="0">t</tspan><tspan class="cls-5" x="5.18" y="0">tach NFC tag</tspan></text><text class="cls-6" transform="translate(39.35 335.69)">L<tspan class="cls-5" x="12.54" y="0">egal </tspan><tspan class="cls-7" x="72.42" y="0">R</tspan><tspan class="cls-5" x="88.96" y="0">ed</tspan><tspan class="cls-7" x="119.81" y="0">r</tspan><tspan class="cls-8" x="129.76" y="0">e</tspan><tspan class="cls-9" x="144.41" y="0">s</tspan><tspan class="cls-5" x="156.41" y="0">s</tspan></text><text class="cls-10" transform="translate(40.35 336.69)">L<tspan class="cls-5" x="12.54" y="0">egal </tspan><tspan class="cls-7" x="72.42" y="0">R</tspan><tspan class="cls-5" x="88.96" y="0">ed</tspan><tspan class="cls-7" x="119.81" y="0">r</tspan><tspan class="cls-8" x="129.76" y="0">e</tspan><tspan class="cls-9" x="144.41" y="0">s</tspan><tspan class="cls-5" x="156.41" y="0">s</tspan></text><g class="cls-11"><path d="M50.52,49.73h4.3a1.73,1.73,0,0,1,1.83,1.6v1.2a1.74,1.74,0,0,1-1.83,1.61h-4.3c-1.69,0-3.07-1-3.07-2.21S48.83,49.73,50.52,49.73Z" transform="translate(-21.45 -21.44)"/><path d="M45.22,57.34c0,1.21,1.38,2.2,3.07,2.2h3.27a1.73,1.73,0,0,0,1.83-1.6v-1.2a1.74,1.74,0,0,0-1.83-1.61H48.29C46.6,55.13,45.22,56.13,45.22,57.34Z" transform="translate(-21.45 -21.44)"/><path d="M43,62.74C43,64,44.37,65,46.06,65H48.3a1.74,1.74,0,0,0,1.83-1.61V62.15a1.73,1.73,0,0,0-1.83-1.61H46.06C44.37,60.54,43,61.53,43,62.74Z" transform="translate(-21.45 -21.44)"/><path d="M57.87,44.32H56.15l-1.62,4.41h3.34c1.69,0,3.07-1,3.07-2.2S59.56,44.32,57.87,44.32Z" transform="translate(-21.45 -21.44)"/><path d="M36.79,55.62a11.43,11.43,0,0,0-.48-3.26l8.45,3.1a2.89,2.89,0,0,0-.71,1.88,3,3,0,0,0,1,2.14,3.83,3.83,0,0,0-3.06,2.46L36,59.76h0A11.42,11.42,0,0,0,36.79,55.62Zm3.41,3.57a1.79,1.79,0,1,0-1.07-2.3A1.79,1.79,0,0,0,40.2,59.19ZM54.64,34.36l-9.43-3.45a3.7,3.7,0,0,0-4.74,2.24l-.89,2.43A5.53,5.53,0,0,1,41,38.32l1.46-4,12.08,4.42-3.59,9.81h2.41l3.45-9.42A3.72,3.72,0,0,0,54.64,34.36Z" transform="translate(-21.45 -21.44)"/><path d="M41.85,63.15l-7.43-2.73a10,10,0,0,0,1.21-4.8A10.12,10.12,0,0,0,35,52.15c1.54-3.94,4.17-10.7,4.66-12,1-2.69-1.94-4.59-1.94-4.59l-7.8,13.3c-2,3.55-3,5.37-2.89,9.62a30.22,30.22,0,0,1-5.6,5l7.55,12a30,30,0,0,1,7.88-5.63c6.57-.91,8.92-3.7,8.92-3.7C43.72,66,42.09,64.77,41.85,63.15Z" transform="translate(-21.45 -21.44)"/><path d="M61.94,35a4.7,4.7,0,0,0-8.75-2.38l1.85.68c.1,0,.19.08.29.12a2.48,2.48,0,1,1,2.83,3.89,4.9,4.9,0,0,1-.26,2.26l0,.08A4.7,4.7,0,0,0,61.94,35Z" transform="translate(-21.45 -21.44)"/><path d="M66.35,35A9.1,9.1,0,0,0,49,31.06l2.08.76a6.91,6.91,0,1,1,6.14,10.06H57l-.47,1.29h1.3a5.14,5.14,0,0,1,2.19.47A9.12,9.12,0,0,0,66.35,35Z" transform="translate(-21.45 -21.44)"/><path d="M57.24,21.44A13.55,13.55,0,0,0,44.83,29.6a5.64,5.64,0,0,1,.78.21l1.33.49a11.31,11.31,0,1,1,14.88,15,2.8,2.8,0,0,1,.28,1.22,2.84,2.84,0,0,1-.25,1.16,13.53,13.53,0,0,0-4.61-26.25Z" transform="translate(-21.45 -21.44)"/></g><text class="cls-12" transform="translate(45.8 43.65)">Di<tspan class="cls-9" x="9.66" y="0">r</tspan><tspan class="cls-13" x="13.13" y="0">ect your NA</tspan><tspan class="cls-9" x="63.72" y="0">A</tspan><tspan class="cls-13" x="69.61" y="0">CP donation via NFC </tspan></text><text x="-21.45" y="-21.44"></text></svg>