<svg id="Layer_1" data-name="Layer 1" xmlns="http://www.w3.org/2000/svg" viewBox="0 0 293.28 358.07"><defs><style>.cls-1,.cls-4{font-size:32px;font-family:AvenirNextCondensed-DemiBold, Avenir Next Condensed;font-weight:700;letter-spacing:0.01em;}.cls-1{fill:none;stroke:#000;stroke-width:0.25px;}.cls-2{letter-spacing:0em;}.cls-3{letter-spacing:0em;}.cls-4{opacity:0.25;}.cls-5{fill:#666;}.cls-6{font-size:8px;fill:#e6e6e6;font-family:AvenirNextCondensed-Italic, Avenir Next Condensed;font-style:italic;letter-spacing:0em;}.cls-7{letter-spacing:0em;}.cls-10,.cls-8{letter-spacing:0.01em;}.cls-10,.cls-9{opacity:0.5;}.cls-10{font-size:12px;font-family:AvenirNextCondensed-Medium, Avenir Next Condensed;}.cls-11{letter-spacing:0em;}.cls-12{letter-spacing:0.01em;}</style></defs><title>Mattie Reynolds Scholarship</title><text x="47.95" y="-27.02"></text><text class="cls-1" transform="translate(92.5 312.62)">Ma<tspan class="cls-2" x="38.43" y="0">t</tspan><tspan x="47.46" y="0">tie </tspan><tspan class="cls-3" x="86.33" y="0">R</tspan><tspan x="102.88" y="0">eynolds</tspan><tspan x="28.14" y="30">Scholarship</tspan></text><text class="cls-4" transform="translate(93.28 313.42)">Ma<tspan class="cls-2" x="38.43" y="0">t</tspan><tspan x="47.46" y="0">tie </tspan><tspan class="cls-3" x="86.33" y="0">R</tspan><tspan x="102.88" y="0">eynolds</tspan><tspan x="28.14" y="30">Scholarship</tspan></text><text x="47.95" y="-27.02"></text><circle class="cls-5" cx="232.65" cy="212.09" r="36"/><path d="M213.2,177.54v35.93a37.56,37.56,0,0,0-57.58.07v-36Z" transform="translate(47.95 -27.02)"/><polygon points="293.02 154.01 232.03 171.95 177.82 154.01 236.56 133.77 293.02 154.01"/><text class="cls-6" transform="translate(211.54 216.19)">a<tspan class="cls-7" x="3.23" y="0">t</tspan><tspan class="cls-8" x="5.18" y="0">tach NFC tag</tspan></text><g class="cls-9"><path d="M57.1,55.3h4.3a1.73,1.73,0,0,1,1.82,1.61v1.2a1.73,1.73,0,0,1-1.82,1.6H57.1c-1.69,0-3.07-1-3.07-2.2S55.41,55.3,57.1,55.3Z" transform="translate(47.95 -27.02)"/><path d="M51.8,62.91c0,1.22,1.38,2.21,3.06,2.21h3.28A1.73,1.73,0,0,0,60,63.51V62.32a1.73,1.73,0,0,0-1.82-1.61H54.86C53.18,60.71,51.8,61.7,51.8,62.91Z" transform="translate(47.95 -27.02)"/><path d="M49.56,68.32c0,1.21,1.39,2.2,3.07,2.2h2.25a1.73,1.73,0,0,0,1.82-1.6v-1.2a1.73,1.73,0,0,0-1.82-1.6H52.63C51,66.12,49.56,67.11,49.56,68.32Z" transform="translate(47.95 -27.02)"/><path d="M64.45,49.9H62.72l-1.61,4.41h3.33c1.69,0,3.07-1,3.07-2.21S66.13,49.9,64.45,49.9Z" transform="translate(47.95 -27.02)"/><path d="M43.37,61.2a11.33,11.33,0,0,0-.49-3.26L51.33,61a2.93,2.93,0,0,0-.7,1.88,3,3,0,0,0,.94,2.15,3.81,3.81,0,0,0-3,2.45l-5.93-2.17h0A11.29,11.29,0,0,0,43.37,61.2Zm3.4,3.56a1.78,1.78,0,1,0-1.06-2.29A1.79,1.79,0,0,0,46.77,64.76ZM61.21,39.93l-9.43-3.45a3.7,3.7,0,0,0-4.73,2.25l-.89,2.43a5.57,5.57,0,0,1,1.41,2.74l1.46-4,12.08,4.42-3.6,9.82h2.42l3.45-9.43A3.71,3.71,0,0,0,61.21,39.93Z" transform="translate(47.95 -27.02)"/><path d="M48.43,68.72,41,66a10,10,0,0,0,1.2-4.8,10.36,10.36,0,0,0-.6-3.47c1.53-3.94,4.16-10.71,4.66-12,1-2.69-1.94-4.59-1.94-4.59l-7.8,13.3c-2,3.54-3,5.37-2.9,9.61A30.28,30.28,0,0,1,28,69l7.54,12a29.92,29.92,0,0,1,7.89-5.63c6.57-.91,8.92-3.71,8.92-3.71C50.3,71.59,48.66,70.35,48.43,68.72Z" transform="translate(47.95 -27.02)"/><path d="M68.52,40.55a4.7,4.7,0,0,0-8.75-2.38l1.84.67.29.13a2.47,2.47,0,0,1,1.92-.92,2.49,2.49,0,0,1,.92,4.81,4.86,4.86,0,0,1-.27,2.25l0,.09A4.71,4.71,0,0,0,68.52,40.55Z" transform="translate(47.95 -27.02)"/><path d="M72.93,40.55A9.1,9.1,0,0,0,55.6,36.64l2.07.76a6.9,6.9,0,1,1,6.15,10.05h-.2l-.47,1.29h1.29a5.11,5.11,0,0,1,2.19.48A9.13,9.13,0,0,0,72.93,40.55Z" transform="translate(47.95 -27.02)"/><path d="M63.82,27A13.55,13.55,0,0,0,51.4,35.18a3.46,3.46,0,0,1,.78.21l1.34.49a11.31,11.31,0,1,1,14.88,15,2.76,2.76,0,0,1,.28,1.21,2.7,2.7,0,0,1-.26,1.16A13.52,13.52,0,0,0,63.82,27Z" transform="translate(47.95 -27.02)"/></g><text class="cls-10" transform="translate(120.47 42.94)">Di<tspan class="cls-11" x="9.66" y="0">r</tspan><tspan class="cls-12" x="13.13" y="0">ect your NA</tspan><tspan class="cls-11" x="63.72" y="0">A</tspan><tspan class="cls-12" x="69.61" y="0">CP donation via NFC </tspan></text><text x="47.95" y="-27.02"></text></svg>