<svg id="Layer_1" data-name="Layer 1" xmlns="http://www.w3.org/2000/svg" viewBox="0 0 211.21 367.36"><defs><style>.cls-1{fill:#666;}.cls-2{font-size:8px;fill:#e6e6e6;font-family:AvenirNextCondensed-Italic, Avenir Next Condensed;font-style:italic;letter-spacing:0em;}.cls-3{letter-spacing:0em;}.cls-10,.cls-4{letter-spacing:0.01em;}.cls-5,.cls-8{font-size:32px;font-family:AvenirNextCondensed-DemiBold, Avenir Next Condensed;font-weight:700;letter-spacing:-0.04em;}.cls-5{fill:none;stroke:#000;stroke-width:0.25px;}.cls-6{letter-spacing:0em;}.cls-7{letter-spacing:0.01em;}.cls-8{opacity:0.25;}.cls-10,.cls-9{opacity:0.5;}.cls-10{font-size:12px;font-family:AvenirNextCondensed-Medium, Avenir Next Condensed;}.cls-11{letter-spacing:0em;}.cls-12{letter-spacing:0.01em;}</style></defs><title>Youth Council</title><polygon points="66.85 205.69 66.85 210.28 64.07 213.91 53.31 205.69 66.85 205.69"/><path d="M87.2,230.9v-4.58H73.66l-.8-.61L85.66,209v0a9,9,0,0,0,11.72,8.58Z" transform="translate(-20.18 -20.79)"/><polygon points="67.35 209.28 67.35 255.09 52.8 255.09 52.8 204.69 53.81 204.69 64.57 212.91 67.35 209.28"/><circle cx="76.65" cy="185.21" r="9"/><circle class="cls-1" cx="138.88" cy="139.6" r="36"/><text class="cls-2" transform="translate(117.73 144.16)">a<tspan class="cls-3" x="3.23" y="0">t</tspan><tspan class="cls-4" x="5.18" y="0">tach NFC tag</tspan></text><path d="M218,272.92c0,1.09,0,2.18-.06,3.25H99.25c0-1.07-.07-2.16-.07-3.25,0-39.76,26.6-72,59.4-72S218,233.16,218,272.92Z" transform="translate(-20.18 -20.79)"/><rect x="42.85" y="264.13" width="165.6" height="36"/><text class="cls-5" transform="translate(40.49 351.71)">Y<tspan class="cls-4" x="13.38" y="0">outh </tspan><tspan class="cls-6" x="77.54" y="0">C</tspan><tspan class="cls-7" x="93.34" y="0">ouncil</tspan></text><text class="cls-8" transform="translate(41.49 352.71)">Y<tspan class="cls-4" x="13.38" y="0">outh </tspan><tspan class="cls-6" x="77.54" y="0">C</tspan><tspan class="cls-7" x="93.34" y="0">ouncil</tspan></text><g class="cls-9"><path d="M49.25,49.08h4.3a1.74,1.74,0,0,1,1.83,1.6v1.2a1.73,1.73,0,0,1-1.82,1.61h-4.3c-1.69,0-3.07-1-3.07-2.21S47.56,49.08,49.25,49.08Z" transform="translate(-20.18 -20.79)"/><path d="M44,56.69c0,1.21,1.38,2.2,3.07,2.2h3.27a1.73,1.73,0,0,0,1.82-1.6v-1.2a1.74,1.74,0,0,0-1.83-1.61H47C45.33,54.48,44,55.47,44,56.69Z" transform="translate(-20.18 -20.79)"/><path d="M41.72,62.09c0,1.21,1.38,2.21,3.07,2.21H47a1.73,1.73,0,0,0,1.82-1.61v-1.2A1.73,1.73,0,0,0,47,59.89H44.79C43.1,59.89,41.72,60.88,41.72,62.09Z" transform="translate(-20.18 -20.79)"/><path d="M56.6,43.67H54.87l-1.61,4.41H56.6c1.68,0,3.06-1,3.06-2.21S58.28,43.67,56.6,43.67Z" transform="translate(-20.18 -20.79)"/><path d="M35.52,55A11.38,11.38,0,0,0,35,51.71l8.45,3.09a2.91,2.91,0,0,0-.71,1.89,3,3,0,0,0,.94,2.14,3.81,3.81,0,0,0-3,2.45l-5.93-2.17h0A11.25,11.25,0,0,0,35.52,55Zm3.4,3.57a1.79,1.79,0,1,0-1.06-2.3A1.79,1.79,0,0,0,38.92,58.54ZM53.36,33.71l-9.43-3.46A3.71,3.71,0,0,0,39.2,32.5l-.89,2.43a5.53,5.53,0,0,1,1.41,2.74l1.46-4L53.26,38.1l-3.6,9.81h2.42l3.45-9.43A3.71,3.71,0,0,0,53.36,33.71Z" transform="translate(-20.18 -20.79)"/><path d="M40.58,62.49l-7.43-2.72a10,10,0,0,0,1.2-4.8,10.12,10.12,0,0,0-.6-3.47c1.53-3.94,4.17-10.7,4.66-12,1-2.69-1.94-4.59-1.94-4.59l-7.8,13.3c-2,3.55-3,5.37-2.9,9.62a30.39,30.39,0,0,1-5.59,5l7.54,12a30.15,30.15,0,0,1,7.89-5.63c6.57-.91,8.92-3.71,8.92-3.71C42.45,65.36,40.81,64.12,40.58,62.49Z" transform="translate(-20.18 -20.79)"/><path d="M60.67,34.32a4.7,4.7,0,0,0-8.75-2.38l1.84.67.29.13A2.47,2.47,0,0,1,56,31.82a2.49,2.49,0,0,1,.92,4.81,4.91,4.91,0,0,1-.27,2.26l0,.08A4.7,4.7,0,0,0,60.67,34.32Z" transform="translate(-20.18 -20.79)"/><path d="M65.08,34.32a9.1,9.1,0,0,0-17.33-3.91l2.08.76A6.9,6.9,0,1,1,56,41.23h-.2l-.47,1.29h1.3a5.09,5.09,0,0,1,2.18.47A9.13,9.13,0,0,0,65.08,34.32Z" transform="translate(-20.18 -20.79)"/><path d="M56,20.79A13.53,13.53,0,0,0,43.56,29a5.16,5.16,0,0,1,.77.21l1.34.49a11.31,11.31,0,1,1,14.88,15,2.76,2.76,0,0,1,.28,1.21A2.84,2.84,0,0,1,60.58,47,13.53,13.53,0,0,0,56,20.79Z" transform="translate(-20.18 -20.79)"/></g><text class="cls-10" transform="translate(41.64 42.82)">Di<tspan class="cls-11" x="9.66" y="0">r</tspan><tspan class="cls-12" x="13.13" y="0">ect your NA</tspan><tspan class="cls-11" x="63.72" y="0">A</tspan><tspan class="cls-12" x="69.61" y="0">CP donation via NFC </tspan></text><text x="-20.18" y="-20.79"></text></svg>